<svg width="108" height="64" viewBox="0 0 108 64" fill="none" xmlns="http://www.w3.org/2000/svg">
<g clip-path="url(#clip0_7_12)">
<path d="M36.8996 47.5152C36.6986 47.4395 36.4805 47.3956 36.2496 47.3956C36.0186 47.3956 35.8005 47.4395 35.5995 47.5152C35.3985 47.595 35.2146 47.7066 35.0649 47.8502L35.0521 47.8582C34.9665 47.9379 34.8853 48.0296 34.8211 48.1293C34.7869 48.1812 34.7527 48.237 34.7228 48.2968H32.0241V46.1116C31.6093 46.291 31.1774 46.4266 30.7369 46.5103C30.6599 46.5263 30.5872 46.5383 30.5102 46.5502V48.9986C30.5102 49.194 30.5957 49.3695 30.7326 49.4971C30.8694 49.6247 31.0576 49.7044 31.2672 49.7044H34.7484C34.7741 49.7523 34.804 49.8001 34.8382 49.848C34.8981 49.9317 34.9665 50.0115 35.0435 50.0833L35.0564 50.0952C35.2103 50.2388 35.3985 50.3584 35.6081 50.4382C35.8091 50.5139 36.0272 50.5578 36.2581 50.5578C36.4805 50.5578 36.6986 50.5179 36.8953 50.4421L36.9082 50.4382C37.1177 50.3584 37.3016 50.2388 37.4599 50.0952C37.6138 49.9517 37.7421 49.7762 37.8277 49.5808C37.9089 49.3934 37.956 49.19 37.956 48.9747C37.956 48.7633 37.9089 48.56 37.8277 48.3686C37.7421 48.1732 37.6138 47.9977 37.4599 47.8542C37.2974 47.7146 37.1092 47.595 36.8996 47.5152ZM24.5613 32.5616H21.3965L20.9431 33.9493H18.0948L21.4948 25.5274H24.5484L27.9356 33.9493H25.0146L24.5613 32.5616ZM23.9711 30.7353L22.9831 27.7087L21.9909 30.7353H23.9711ZM28.7225 25.5234H31.5238V33.9453H28.7225V25.5234ZM26.5884 16.8902C26.1265 17.2013 25.6989 17.62 25.3268 18.1623C25.3097 18.1902 25.284 18.2141 25.2541 18.2301C25.1386 18.2979 24.9847 18.266 24.9119 18.1623C24.5399 17.62 24.1122 17.2013 23.6503 16.8902C23.1542 16.5553 22.6196 16.3439 22.0679 16.2402H22.0594C21.5205 16.1366 20.9688 16.1366 20.4385 16.2243C19.8782 16.316 19.3351 16.5074 18.8475 16.7706C18.3643 17.0338 17.9281 17.3727 17.5645 17.7635C17.2138 18.1423 16.9316 18.577 16.7477 19.0435C16.7177 19.1153 16.6921 19.1911 16.6664 19.2708C16.645 19.3426 16.6194 19.4224 16.6023 19.5021C16.5809 19.6058 16.4868 19.6816 16.367 19.6855C15.794 19.7653 15.2252 19.9607 14.6948 20.2518C14.156 20.5509 13.6556 20.9576 13.2236 21.4441C12.796 21.9306 12.4367 22.5048 12.1801 23.1428C11.9406 23.741 11.7952 24.3989 11.7653 25.0968C11.761 25.1885 11.761 25.2762 11.761 25.3679C11.761 25.4517 11.7653 25.5394 11.7653 25.6311C11.7696 25.7069 11.7353 25.7866 11.6626 25.8345C11.3119 26.0697 10.9955 26.313 10.7132 26.5642C10.4267 26.8234 10.1743 27.0906 9.95623 27.3657C9.60126 27.8163 9.34038 28.2869 9.16503 28.7614C8.98113 29.2559 8.89132 29.7623 8.88277 30.2607C8.87849 30.7393 8.94692 31.2138 9.09233 31.6724C9.23774 32.1389 9.46013 32.5935 9.74667 33.0162C9.90918 33.2594 10.0931 33.4987 10.2941 33.722C10.4994 33.9493 10.7218 34.1646 10.9613 34.368C11.0211 34.4198 11.0553 34.5036 11.0382 34.5833C10.9698 34.8864 10.9356 35.1855 10.9228 35.4806C10.9142 35.7836 10.9313 36.0827 10.9741 36.3738C11.0553 36.9081 11.2221 37.4185 11.4574 37.8891C11.7054 38.3915 12.0304 38.8501 12.4068 39.2528C12.7703 39.6476 13.1852 39.9906 13.6299 40.2737C14.079 40.5608 14.5537 40.7841 15.0413 40.9396C15.2594 41.0074 15.4818 41.0632 15.7084 41.1031C15.9223 41.143 16.1361 41.1669 16.3457 41.1749C16.4611 41.1709 16.568 41.2467 16.5937 41.3583C16.7049 41.8328 16.9102 42.2795 17.1925 42.6822C17.4875 43.1049 17.8596 43.4797 18.2873 43.7908C18.8262 44.1816 19.4591 44.4766 20.1263 44.6322C20.755 44.7797 21.4179 44.8076 22.0679 44.68C22.6496 44.5684 23.2141 44.3371 23.7358 43.9702C24.2148 43.6313 24.6596 43.1767 25.0317 42.5865C25.0531 42.5506 25.0873 42.5227 25.1301 42.5028C25.2498 42.443 25.3995 42.4868 25.4636 42.5985C25.7716 43.1328 26.1479 43.5595 26.567 43.8825C27.0204 44.2294 27.5208 44.4647 28.0468 44.6003C28.7182 44.7717 29.4196 44.7717 30.0996 44.6401C30.8267 44.5006 31.528 44.2055 32.1311 43.7987C32.6058 43.4837 33.0249 43.0969 33.3585 42.6583C33.675 42.2476 33.9102 41.789 34.047 41.3065C34.0642 41.2148 34.1411 41.135 34.2481 41.1191C34.8767 41.0154 35.4969 40.7721 36.0657 40.4093C36.6345 40.0464 37.1519 39.5679 37.5753 38.9976C37.9645 38.4713 38.2767 37.8652 38.4777 37.2032C38.6659 36.5851 38.7557 35.9152 38.7258 35.2094C38.7172 35.1296 38.7557 35.0499 38.8327 35.002C39.2005 34.7668 39.5255 34.5195 39.8164 34.2683C40.1114 34.0051 40.3723 33.734 40.5947 33.4508C40.9369 33.0202 41.1892 32.5736 41.3645 32.115C41.5442 31.6405 41.6382 31.158 41.6553 30.6755C41.6682 30.2089 41.6083 29.7463 41.48 29.2917C41.3517 28.8332 41.1507 28.3905 40.8898 27.9718L40.8813 27.9639C40.7102 27.6887 40.5092 27.4255 40.2868 27.1703C40.0644 26.9151 39.8121 26.6759 39.5426 26.4486C39.4785 26.3967 39.4443 26.313 39.4614 26.2292C39.5213 25.9541 39.5597 25.679 39.5726 25.4078C39.5854 25.1326 39.5769 24.8615 39.5469 24.5943C39.4828 24.04 39.3245 23.5137 39.0936 23.0232C38.8498 22.5048 38.5248 22.0263 38.1442 21.6076C37.7764 21.2008 37.353 20.8459 36.8996 20.5509C36.4463 20.2558 35.963 20.0245 35.4712 19.869L35.4584 19.865C35.1975 19.7813 34.9323 19.7214 34.6714 19.6816H34.6629C34.4063 19.6417 34.1497 19.6257 33.8974 19.6297C33.7819 19.6377 33.6707 19.5659 33.6408 19.4543C33.598 19.2908 33.5424 19.1313 33.4782 18.9757C33.4098 18.8162 33.3328 18.6607 33.243 18.5052C33.0121 18.1064 32.7084 17.7396 32.3535 17.4246C31.9899 17.1016 31.5751 16.8264 31.1303 16.6151C30.6727 16.3997 30.1723 16.2482 29.6591 16.1804C29.1716 16.1166 28.6712 16.1246 28.1794 16.2203C27.6277 16.3439 27.0845 16.5553 26.5884 16.8902ZM33.5809 21.3803C33.6108 21.2926 33.6964 21.2248 33.8033 21.2168C33.9829 21.2048 34.1668 21.2128 34.3507 21.2407C34.5389 21.2686 34.727 21.3125 34.9152 21.3723C35.2702 21.484 35.6252 21.6554 35.9545 21.8708C36.2795 22.0821 36.5874 22.3413 36.8526 22.6364L36.8569 22.6444C37.1348 22.9514 37.3701 23.2944 37.5454 23.6692C37.7122 24.0201 37.8234 24.3949 37.8704 24.7897C37.9004 25.0529 37.9004 25.328 37.8662 25.6072C37.8362 25.8664 37.7721 26.1335 37.6737 26.4007L37.6694 26.4167C37.6096 26.5841 37.6138 26.7596 37.6694 26.9151C37.7293 27.0746 37.8405 27.2182 37.9987 27.3139L38.0116 27.3219C38.3109 27.5292 38.5761 27.7565 38.807 27.9958C39.0465 28.239 39.2518 28.5022 39.4229 28.7734C39.6111 29.0724 39.7565 29.3835 39.8463 29.7025C39.9404 30.0175 39.9831 30.3365 39.9703 30.6515C39.9618 30.9785 39.8933 31.3055 39.7693 31.6285C39.6496 31.9355 39.4742 32.2386 39.2433 32.5337L39.239 32.5377C39.0294 32.8049 38.7643 33.068 38.4521 33.3193C38.1527 33.5585 37.8063 33.7858 37.4086 34.0051L37.3957 34.0131C37.2375 34.0968 37.122 34.2244 37.0536 34.372C36.9852 34.5195 36.9638 34.683 36.998 34.8425L37.0023 34.8744C37.0835 35.4845 37.045 36.0667 36.9125 36.5971C36.767 37.1753 36.5147 37.6937 36.1854 38.1363C35.9331 38.4753 35.6423 38.7664 35.3301 38.9976C35.0093 39.2369 34.6629 39.4124 34.3079 39.52H34.3036C34.1753 39.5559 34.0342 39.4881 33.9957 39.3685C33.5125 37.8971 32.6785 37.4225 31.2672 36.7446L31.2372 36.7287C31.0405 36.641 30.8267 36.633 30.6342 36.6888C30.4418 36.7446 30.275 36.8682 30.1766 37.0477L30.1638 37.0716C30.0697 37.255 30.0611 37.4544 30.121 37.6339C30.1852 37.8133 30.322 37.9728 30.5187 38.0685C31.6991 38.6308 32.5716 39.0575 32.5587 40.4372C32.5545 40.8479 32.4176 41.2467 32.1867 41.6056C31.9429 41.9844 31.5922 42.3233 31.1859 42.5985C30.7711 42.8776 30.3049 43.081 29.8259 43.1807C29.3683 43.2804 28.8979 43.2843 28.4574 43.1727C27.7132 42.9813 27.2299 42.5187 26.9049 41.9565C26.597 41.4221 26.4259 40.8 26.3019 40.2338C26.2933 40.2139 26.2933 40.1899 26.2933 40.17C26.2933 39.8829 26.0538 39.6955 25.7416 39.6117C25.6048 39.5719 25.4551 39.5559 25.3097 39.5559C25.16 39.5559 25.0146 39.5758 24.8777 39.6117C24.5698 39.6995 24.3303 39.8869 24.3303 40.17C24.3303 40.1899 24.326 40.2059 24.3218 40.2258C24.0823 41.1111 23.7358 41.777 23.3296 42.2555C22.8548 42.8178 22.2989 43.1248 21.7258 43.2365C21.3067 43.3162 20.8747 43.2963 20.4642 43.1966C20.0322 43.0889 19.6216 42.8936 19.2624 42.6383C18.9074 42.3792 18.6123 42.0641 18.407 41.7092C18.2103 41.3703 18.0948 40.9954 18.0948 40.6126C18.0948 39.1611 19.0357 38.6746 20.2803 38.0805C20.477 37.9848 20.6138 37.8253 20.678 37.6458C20.7421 37.4624 20.7293 37.259 20.6309 37.0716C20.5283 36.8882 20.3572 36.7606 20.1648 36.7008C19.9723 36.6449 19.7585 36.6529 19.5618 36.7406L19.5489 36.7446C18.082 37.4425 17.2053 37.9529 16.6792 39.4722C16.6493 39.5719 16.5467 39.6476 16.4312 39.6436C16.2858 39.6397 16.1404 39.6237 15.9907 39.5958C15.8453 39.5679 15.6999 39.532 15.563 39.4841C15.2166 39.3725 14.8702 39.209 14.5452 39.0016C14.2244 38.7943 13.925 38.547 13.6599 38.2599C13.3862 37.9648 13.1509 37.6339 12.9713 37.271C12.8003 36.932 12.6805 36.5692 12.6206 36.1903V36.1824C12.5779 35.9032 12.5693 35.6121 12.6035 35.3131C12.6335 35.0339 12.6976 34.7428 12.8045 34.4557L12.8088 34.4438C12.8687 34.2803 12.8644 34.1088 12.8131 33.9573L12.8088 33.9493C12.7532 33.7898 12.642 33.6502 12.4881 33.5505L12.4795 33.5426C12.2058 33.3512 11.9577 33.1478 11.7396 32.9245C11.5172 32.7012 11.3205 32.4619 11.158 32.2147C10.9613 31.9156 10.8073 31.5966 10.7047 31.2696C10.6063 30.9506 10.555 30.6236 10.5592 30.2887C10.5635 29.9497 10.6277 29.6028 10.756 29.2638C10.88 28.9408 11.0596 28.6178 11.3077 28.3028C11.5172 28.0356 11.7738 27.7725 12.0818 27.5212C12.3769 27.278 12.7104 27.0467 13.0953 26.8274C13.2365 26.7476 13.3391 26.636 13.4075 26.5084L13.4118 26.4964C13.4803 26.3648 13.5059 26.2173 13.4845 26.0697C13.4803 26.0538 13.4803 26.0378 13.4803 26.0219V26.0139C13.4589 25.8743 13.446 25.7348 13.4375 25.5992C13.4289 25.4517 13.4289 25.3041 13.4332 25.1606C13.4546 24.6382 13.5615 24.1477 13.7369 23.7051C13.925 23.2306 14.1902 22.8039 14.5067 22.441C14.7675 22.1419 15.0669 21.8907 15.3791 21.6953C15.6913 21.4999 16.0206 21.3604 16.3585 21.2806C16.4868 21.2447 16.6279 21.3125 16.6664 21.4321C16.9316 22.2137 17.2652 22.7042 17.9024 23.2585L17.928 23.2784C18.0863 23.414 18.2916 23.4778 18.4926 23.4698C18.6936 23.4618 18.8903 23.3861 19.0357 23.2385L19.0486 23.2226C19.194 23.075 19.2624 22.8836 19.2538 22.6962C19.2453 22.5088 19.1597 22.3214 18.9972 22.1778C18.484 21.7352 18.3686 21.46 18.2146 21.0134C18.035 20.499 18.0649 19.9966 18.2403 19.55C18.36 19.2429 18.5482 18.9558 18.7877 18.7046C19.0229 18.4534 19.3094 18.2301 19.6259 18.0586L19.6387 18.0506C19.9638 17.8752 20.3145 17.7476 20.678 17.6838C21.0244 17.6239 21.3794 17.62 21.7258 17.6877C22.2133 17.7834 22.6923 18.0227 23.1157 18.4374C23.4878 18.8003 23.8171 19.3027 24.078 19.9647L24.0823 19.9727C24.1721 20.2319 24.4629 20.3834 24.805 20.4432C24.959 20.4711 25.1215 20.4791 25.2797 20.4711H25.284C25.4465 20.4631 25.6005 20.4352 25.7459 20.3914C26.0025 20.3116 26.2035 20.184 26.2506 20.0205V19.9288C26.2506 19.4662 26.5457 18.9757 26.9519 18.573C27.3967 18.1344 27.9912 17.7874 28.4916 17.6917C28.8081 17.6319 29.1288 17.6279 29.441 17.6718C29.766 17.7196 30.0825 17.8153 30.3819 17.9549L30.4075 17.9629C30.7112 18.1064 30.9892 18.2899 31.233 18.5052C31.4725 18.7205 31.6777 18.9638 31.8317 19.231C32.0755 19.6497 32.1867 20.1282 32.1097 20.6346C32.0413 21.0772 32.0241 21.3564 31.6264 21.799L31.6221 21.803C31.481 21.9585 31.4211 22.1539 31.4382 22.3453C31.4553 22.5287 31.5452 22.7082 31.7034 22.8358L31.7291 22.8557C31.8958 22.9833 32.1011 23.0352 32.3021 23.0192C32.4989 23.0033 32.6913 22.9195 32.8282 22.772L32.8496 22.7441C33.2601 22.2895 33.3927 21.9545 33.5809 21.3803ZM42.9726 40.8958C42.8913 40.7083 42.8443 40.505 42.8443 40.2896C42.8443 40.0743 42.8913 39.8709 42.9726 39.6835C43.0581 39.4961 43.1779 39.3246 43.3318 39.1851L43.3404 39.1731C43.4259 39.0933 43.5243 39.0176 43.6312 38.9578C43.6868 38.9259 43.7467 38.894 43.8108 38.866V36.3499H40.4921C40.4964 36.1864 40.4964 36.0229 40.4878 35.8554C40.4792 35.7637 40.522 35.672 40.6075 35.6201C40.9497 35.4008 41.2619 35.1735 41.5442 34.9382H44.5635C44.7731 34.9382 44.9613 35.018 45.0981 35.1456C45.235 35.2732 45.3205 35.4486 45.3205 35.644V38.89C45.3718 38.9139 45.4231 38.9418 45.4745 38.9737C45.5643 39.0295 45.6498 39.0933 45.7268 39.1651L45.7396 39.1771C45.8936 39.3206 46.0219 39.4961 46.1074 39.6915C46.1887 39.8789 46.2357 40.0823 46.2357 40.2976C46.2357 40.505 46.193 40.7043 46.1117 40.8918L46.1074 40.9037C46.0219 41.0991 45.8936 41.2706 45.7396 41.4181C45.5857 41.5617 45.3975 41.6813 45.1879 41.7611C44.9869 41.8368 44.7688 41.8807 44.5379 41.8807C44.3112 41.8807 44.0931 41.8368 43.8878 41.7611C43.6782 41.6813 43.4901 41.5617 43.3361 41.4181C43.1864 41.2666 43.0581 41.0911 42.9726 40.8958ZM47.7796 32.8208H43.2677C43.3447 32.6653 43.4131 32.5098 43.473 32.3503C43.5927 32.0392 43.6782 31.7242 43.7296 31.4092H47.7796C47.8096 31.3573 47.8395 31.3055 47.8737 31.2537C47.9379 31.158 48.0148 31.0702 48.0961 30.9945C48.2543 30.8469 48.4382 30.7313 48.6478 30.6515C48.8488 30.5758 49.0669 30.5319 49.2979 30.5319C49.5202 30.5319 49.7341 30.5718 49.9351 30.6475L49.9479 30.6515C50.1575 30.7313 50.3414 30.8509 50.4996 30.9945C50.6536 31.138 50.7819 31.3135 50.8674 31.5089C50.9487 31.6963 50.9957 31.8997 50.9957 32.115C50.9957 32.3263 50.9487 32.5297 50.8674 32.7211C50.7819 32.9165 50.6536 33.092 50.4996 33.2355C50.3457 33.3791 50.1575 33.4987 49.9479 33.5785C49.7469 33.6542 49.5288 33.6981 49.2979 33.6981C49.0755 33.6981 48.8616 33.6582 48.6606 33.5824L48.6478 33.5785C48.4382 33.4987 48.2543 33.3791 48.0961 33.2355C48.0148 33.1598 47.9421 33.076 47.878 32.9843L47.8694 32.9723C47.8395 32.9245 47.8096 32.8726 47.7796 32.8208ZM49.2166 28.9608H43.5414C43.396 28.5142 43.1907 28.0795 42.9341 27.6648L42.9255 27.6528C42.9042 27.6169 42.8828 27.585 42.8614 27.5492H48.4639V22.9434C48.4211 22.9195 48.3784 22.8956 48.3356 22.8677C48.2501 22.8118 48.1731 22.752 48.1004 22.6842C47.9464 22.5407 47.8181 22.3652 47.7326 22.1698C47.6513 21.9824 47.6043 21.7791 47.6043 21.5637C47.6043 21.3524 47.6513 21.145 47.7326 20.9576C47.8181 20.7622 47.9464 20.5907 48.1004 20.4432C48.2543 20.2996 48.4425 20.18 48.6521 20.1003C48.8531 20.0245 49.0712 19.9806 49.3021 19.9806C49.5288 19.9806 49.7469 20.0245 49.9522 20.1003C50.1618 20.18 50.3499 20.2996 50.5039 20.4432C50.6579 20.5868 50.7862 20.7622 50.8717 20.9576C50.953 21.145 51 21.3484 51 21.5637C51 21.7711 50.9572 21.9705 50.876 22.1579L50.8717 22.1698C50.7862 22.3652 50.6579 22.5367 50.5039 22.6842C50.4098 22.772 50.2986 22.8517 50.1831 22.9195C50.119 22.9554 50.0463 22.9913 49.9779 23.0192V28.251C49.9779 28.4464 49.8923 28.6218 49.7555 28.7494C49.6143 28.881 49.4262 28.9608 49.2166 28.9608ZM43.2848 25.5553H41.3517C41.403 25.2922 41.433 25.029 41.4458 24.7658C41.4543 24.5544 41.4543 24.3471 41.4415 24.1437H42.5278V22.0622C42.4679 22.0343 42.4123 22.0063 42.3567 21.9705C42.2541 21.9106 42.16 21.8389 42.0702 21.7551C41.9162 21.6116 41.7879 21.4361 41.7024 21.2407C41.6211 21.0533 41.5741 20.8499 41.5741 20.6386C41.5741 20.4272 41.6211 20.2239 41.7024 20.0325C41.7879 19.8451 41.9077 19.6736 42.0574 19.53L42.0702 19.5181C42.2242 19.3745 42.4123 19.2549 42.6219 19.1751C42.8229 19.0994 43.041 19.0555 43.2719 19.0555C43.5029 19.0555 43.721 19.0994 43.922 19.1751C44.123 19.2549 44.3069 19.3665 44.4609 19.5101L44.4737 19.5181C44.6277 19.6616 44.7517 19.8291 44.8372 20.0205L44.8415 20.0325C44.9228 20.2199 44.9698 20.4233 44.9698 20.6386C44.9698 20.8499 44.9228 21.0573 44.8415 21.2447C44.756 21.4321 44.6362 21.6036 44.4865 21.7472L44.4737 21.7591C44.3925 21.8349 44.3026 21.9027 44.2 21.9665C44.1487 21.9984 44.0974 22.0263 44.0418 22.0502V24.8495C44.0418 25.0449 43.9562 25.2204 43.8194 25.348C43.6825 25.4756 43.4901 25.5553 43.2848 25.5553ZM13.3135 13.4848C13.5145 13.5605 13.7326 13.6044 13.9635 13.6044C14.1945 13.6044 14.4126 13.5605 14.6136 13.4848C14.8146 13.405 14.9985 13.2934 15.1482 13.1498L15.161 13.1418C15.2465 13.0621 15.3278 12.9704 15.392 12.8707C15.4262 12.8188 15.4604 12.763 15.4903 12.7032H18.1889V14.8765C18.6636 14.6412 19.1769 14.4697 19.7029 14.37V11.9974C19.7029 11.802 19.6174 11.6265 19.4805 11.4989C19.3436 11.3713 19.1555 11.2916 18.9459 11.2916H15.4647C15.439 11.2437 15.4091 11.1959 15.3748 11.148C15.315 11.0643 15.2465 10.9845 15.1696 10.9128L15.1567 10.9008C15.0028 10.7572 14.8146 10.6376 14.605 10.5579C14.404 10.4821 14.1859 10.4382 13.955 10.4382C13.7326 10.4382 13.5145 10.4781 13.3177 10.5539L13.3049 10.5579C13.0953 10.6376 12.9114 10.7572 12.7532 10.9008C12.5992 11.0444 12.4709 11.2198 12.3854 11.4152C12.3042 11.6026 12.2571 11.806 12.2571 12.0213C12.2571 12.2327 12.3042 12.436 12.3854 12.6274C12.4709 12.8228 12.5992 12.9983 12.7532 13.1418C12.92 13.2854 13.1039 13.405 13.3135 13.4848ZM21.9781 9.00269V14.4498C22.4828 14.5854 22.9746 14.8007 23.4365 15.1117L23.4878 15.1476C23.4878 15.1357 23.4921 15.1237 23.4921 15.1117V9.00269C23.5477 8.97477 23.6033 8.94686 23.6589 8.91496C23.7615 8.85514 23.8556 8.78337 23.9369 8.7076C24.0908 8.56006 24.2191 8.38859 24.3047 8.1932C24.3859 8.00578 24.433 7.80241 24.433 7.58708C24.433 7.37972 24.3902 7.18034 24.3089 6.99292L24.3047 6.98096C24.2191 6.78556 24.0908 6.6141 23.9369 6.46655C23.7829 6.323 23.5947 6.20337 23.3852 6.12362C23.1842 6.04785 22.966 6.00399 22.7351 6.00399C22.5084 6.00399 22.2903 6.04785 22.085 6.12362C21.8755 6.20337 21.6873 6.323 21.5333 6.46655C21.3794 6.61011 21.2511 6.78556 21.1655 6.98096C21.0843 7.16838 21.0372 7.37174 21.0372 7.58708C21.0372 7.79443 21.08 7.99382 21.1613 8.18123L21.1655 8.1932C21.2511 8.38859 21.3794 8.56006 21.5333 8.7076C21.6146 8.78337 21.7044 8.85116 21.8028 8.91097L21.8113 8.91496C21.8669 8.94686 21.9182 8.97477 21.9781 9.00269ZM26.1137 7.66284V15.6301C26.319 15.4347 26.5371 15.2633 26.7595 15.1117C27.0375 14.9243 27.3283 14.7688 27.6277 14.6492V8.36466H32.5673C32.593 8.40454 32.6186 8.44442 32.6486 8.48429C32.7084 8.56405 32.7726 8.63582 32.8453 8.70361C32.9992 8.84717 33.1874 8.9668 33.397 9.04655C33.598 9.12231 33.8161 9.16618 34.047 9.16618C34.2737 9.16618 34.4961 9.12231 34.6971 9.04655C34.9067 8.9668 35.0948 8.84717 35.2488 8.70361C35.4028 8.56006 35.5311 8.3846 35.6166 8.18921C35.6979 8.00179 35.7449 7.79842 35.7449 7.58309C35.7449 7.37174 35.6979 7.16838 35.6166 6.97697C35.5311 6.78158 35.4028 6.60612 35.2488 6.46257C35.0863 6.31901 34.8981 6.19938 34.6886 6.11963C34.4875 6.04386 34.2694 6 34.0428 6C33.8204 6 33.6065 6.03988 33.4055 6.11564L33.3927 6.11963C33.1831 6.19938 32.9992 6.31901 32.841 6.46257C32.7469 6.55029 32.6614 6.65397 32.5887 6.76164C32.5502 6.82145 32.5117 6.88924 32.4818 6.95304H26.8707C26.6611 6.95304 26.473 7.0328 26.3361 7.1604C26.1992 7.29199 26.1137 7.46745 26.1137 7.66284ZM29.766 13.1937V14.2863C29.92 14.2943 30.0782 14.3062 30.2322 14.3302C30.5914 14.378 30.9421 14.4618 31.28 14.5774V13.9035H33.5125C33.5424 13.9593 33.5723 14.0111 33.6108 14.063C33.675 14.1587 33.7519 14.2464 33.8418 14.3302C33.9957 14.4737 34.1839 14.5933 34.3935 14.6731C34.5945 14.7489 34.8126 14.7927 35.0392 14.7927C35.2659 14.7927 35.484 14.7489 35.6893 14.6731C35.8903 14.5933 36.0742 14.4817 36.2282 14.3421L36.241 14.3302C36.395 14.1866 36.5233 14.0111 36.6088 13.8158C36.6901 13.6283 36.7371 13.425 36.7371 13.2096C36.7371 12.9943 36.6901 12.7909 36.6088 12.6035C36.5233 12.4161 36.4035 12.2446 36.2496 12.1011L36.241 12.0891C36.087 11.9456 35.9074 11.8299 35.7021 11.7502L35.6893 11.7462C35.4883 11.6704 35.2702 11.6265 35.0392 11.6265C34.8126 11.6265 34.5902 11.6704 34.3892 11.7462C34.1882 11.8259 34.0043 11.9376 33.8503 12.0771L33.8375 12.0891C33.7562 12.1649 33.6835 12.2486 33.6151 12.3443C33.5809 12.3922 33.5509 12.44 33.5253 12.4919H30.523C30.3135 12.4919 30.1253 12.5716 29.9884 12.6992C29.8516 12.8228 29.766 12.9983 29.766 13.1937ZM8.02742 20.0365C8.10868 20.2239 8.15572 20.4272 8.15572 20.6426C8.15572 20.8579 8.10868 21.0613 8.02742 21.2487C7.94189 21.4361 7.82214 21.6076 7.66818 21.7472L7.65962 21.7591C7.57409 21.8389 7.47572 21.9146 7.3688 21.9744C7.31321 22.0063 7.25333 22.0382 7.18918 22.0662V24.5824H9.99044V24.706C9.99044 24.8017 9.99472 24.9014 9.99899 25.005C10.0075 25.0928 9.96478 25.1805 9.88352 25.2363C9.51572 25.4796 9.18642 25.7348 8.88704 25.994H6.44075C6.2312 25.994 6.04302 25.9142 5.90616 25.7866C5.76931 25.659 5.68377 25.4836 5.68377 25.2882V22.0422C5.63245 22.0183 5.58113 21.9904 5.52981 21.9585C5.44 21.9027 5.35447 21.8389 5.27748 21.7671L5.26465 21.7551C5.11069 21.6116 4.98239 21.4361 4.89686 21.2407C4.8156 21.0533 4.76855 20.8499 4.76855 20.6346C4.76855 20.4272 4.81132 20.2279 4.89258 20.0404L4.89686 20.0285C4.98239 19.8331 5.11069 19.6616 5.26465 19.5141C5.41862 19.3705 5.60679 19.2509 5.81635 19.1711C6.01736 19.0954 6.23547 19.0515 6.46641 19.0515C6.69308 19.0515 6.91119 19.0954 7.11648 19.1711C7.32604 19.2509 7.51421 19.3705 7.66818 19.5141C7.81358 19.6656 7.94189 19.8411 8.02742 20.0365ZM3.22038 28.1114H7.2405C7.17208 28.255 7.1122 28.4025 7.0566 28.5461C6.93686 28.8691 6.85132 29.1921 6.8 29.519H3.22038C3.19044 29.5709 3.1605 29.6227 3.12629 29.6746C3.06214 29.7703 2.98516 29.858 2.9039 29.9338C2.74566 30.0813 2.56176 30.1969 2.3522 30.2767C2.15119 30.3525 1.93308 30.3963 1.70214 30.3963C1.47975 30.3963 1.26591 30.3564 1.06491 30.2807L1.05208 30.2767C0.842516 30.1969 0.658616 30.0773 0.500377 29.9338C0.346415 29.7902 0.218113 29.6147 0.132579 29.4194C0.0513208 29.2319 0.00427673 29.0286 0.00427673 28.8132C0.00427673 28.6019 0.0513208 28.3985 0.132579 28.2071C0.218113 28.0117 0.346415 27.8363 0.500377 27.6927C0.65434 27.5492 0.842516 27.4295 1.05208 27.3498C1.25308 27.274 1.47119 27.2301 1.70214 27.2301C1.92453 27.2301 2.13836 27.27 2.33937 27.3458L2.3522 27.3498C2.56176 27.4295 2.74566 27.5492 2.9039 27.6927C2.98516 27.7685 3.05786 27.8522 3.12201 27.9439L3.13057 27.9559C3.1605 28.0077 3.19044 28.0596 3.22038 28.1114ZM1.7834 31.9714H7.01384C7.17635 32.4539 7.41157 32.9205 7.71094 33.3631V33.3671L7.7195 33.3831H2.5361V37.9888C2.57887 38.0127 2.62164 38.0366 2.6644 38.0645C2.74994 38.1204 2.82692 38.1802 2.89962 38.248C3.05358 38.3915 3.18189 38.567 3.26742 38.7624C3.34868 38.9498 3.39572 39.1532 3.39572 39.3685C3.39572 39.5798 3.34868 39.7872 3.26742 39.9746C3.18189 40.17 3.05358 40.3415 2.89962 40.489C2.74566 40.6326 2.55748 40.7522 2.34792 40.832C2.14692 40.9077 1.92881 40.9516 1.69786 40.9516C1.47119 40.9516 1.25308 40.9077 1.0478 40.832C0.838239 40.7522 0.650063 40.6326 0.496101 40.489C0.342138 40.3335 0.213836 40.158 0.128302 39.9666C0.047044 39.7792 0 39.5758 0 39.3605C0 39.1532 0.0427673 38.9538 0.124025 38.7664L0.128302 38.7544C0.213836 38.559 0.342138 38.3875 0.496101 38.24C0.590189 38.1523 0.701384 38.0725 0.816855 38.0047C0.881006 37.9688 0.953711 37.9329 1.02214 37.905V32.6733C1.02214 32.4779 1.10767 32.3024 1.24453 32.1748C1.38566 32.0512 1.57384 31.9714 1.7834 31.9714ZM7.71522 35.3769H9.12654C9.0795 35.6401 9.05384 35.8993 9.04528 36.1545C9.03673 36.3698 9.04101 36.5811 9.05811 36.7885H8.4722V38.87C8.53208 38.898 8.58767 38.9259 8.64327 38.9618C8.74591 39.0216 8.84 39.0933 8.92981 39.1771C9.08377 39.3206 9.21208 39.4961 9.29761 39.6915C9.37887 39.8789 9.42591 40.0823 9.42591 40.2976C9.42591 40.5129 9.37887 40.7123 9.29761 40.9037C9.21208 41.0911 9.09233 41.2626 8.94264 41.4062L8.92981 41.4181C8.77585 41.5617 8.58767 41.6813 8.37811 41.7611C8.17711 41.8368 7.95899 41.8807 7.72805 41.8807C7.49711 41.8807 7.27899 41.8368 7.07799 41.7611C6.87698 41.6813 6.69308 41.5697 6.53912 41.4261L6.52629 41.4181C6.37233 41.2746 6.2483 41.1071 6.16277 40.9157L6.15849 40.9037C6.07723 40.7163 6.03019 40.5129 6.03019 40.2976C6.03019 40.0863 6.07723 39.8789 6.15849 39.6915C6.24402 39.5041 6.36377 39.3326 6.51346 39.189L6.52629 39.1771C6.60755 39.1013 6.69736 39.0335 6.8 38.9697C6.85132 38.9378 6.90264 38.9099 6.95824 38.886V36.0867C6.95824 35.8913 7.04377 35.7158 7.18063 35.5882C7.31748 35.4526 7.50566 35.3769 7.71522 35.3769ZM28.2392 51.9973V46.4186C27.7047 46.2631 27.2 46.0119 26.7381 45.657L26.7296 45.649V52.0013C26.674 52.0292 26.6184 52.0571 26.5628 52.089C26.4601 52.1488 26.366 52.2206 26.2848 52.2964C26.1308 52.4439 26.0025 52.6154 25.917 52.8108C25.8357 52.9982 25.7887 53.2016 25.7887 53.4169C25.7887 53.6243 25.8314 53.8237 25.9127 54.0111L25.917 54.023C26.0025 54.2184 26.1308 54.3899 26.2848 54.5374C26.4387 54.681 26.6269 54.8006 26.8365 54.8804C27.0375 54.9561 27.2556 55 27.4865 55C27.7132 55 27.9313 54.9561 28.1366 54.8804C28.3462 54.8006 28.5343 54.681 28.6883 54.5374C28.8423 54.3939 28.9706 54.2184 29.0561 54.023C29.1374 53.8356 29.1844 53.6322 29.1844 53.4169C29.1844 53.2096 29.1416 53.0102 29.0604 52.8228L29.0561 52.8108C28.9706 52.6154 28.8423 52.4439 28.6883 52.2964C28.607 52.2206 28.5172 52.1528 28.4189 52.093L28.406 52.085C28.3504 52.0531 28.2948 52.0252 28.2392 51.9973ZM24.0994 53.3372V45.2981C23.9197 45.4696 23.7316 45.6211 23.5348 45.7607C23.2312 45.976 22.9147 46.1475 22.5854 46.283V52.6393H17.6458C17.6201 52.5994 17.5945 52.5596 17.5645 52.5197C17.5047 52.4399 17.4405 52.3682 17.3678 52.3004C17.2138 52.1568 17.0257 52.0372 16.8161 51.9574C16.6151 51.8817 16.397 51.8378 16.166 51.8378C15.9394 51.8378 15.717 51.8817 15.516 51.9574C15.3064 52.0372 15.1225 52.1568 14.9643 52.3004C14.8103 52.4439 14.682 52.6194 14.5965 52.8148C14.5152 53.0022 14.4682 53.2056 14.4682 53.4209C14.4682 53.6322 14.5152 53.8356 14.5965 54.027C14.682 54.2224 14.8103 54.3979 14.9643 54.5414C15.1182 54.685 15.3064 54.8046 15.516 54.8844C15.717 54.9601 15.9351 55.004 16.166 55.004C16.3884 55.004 16.6023 54.9641 16.8033 54.8883L16.8161 54.8844C17.0257 54.8046 17.2096 54.685 17.3678 54.5414C17.4619 54.4537 17.5474 54.35 17.6201 54.2424C17.6586 54.1825 17.6971 54.1147 17.727 54.0509H23.3381C23.5477 54.0509 23.7358 53.9712 23.8727 53.8436C24.0138 53.708 24.0994 53.5326 24.0994 53.3372ZM20.447 47.8063V46.6459C20.1135 46.63 19.7799 46.5821 19.4548 46.5063C19.2795 46.4665 19.1042 46.4146 18.9331 46.3588V47.1045H16.7006C16.6707 47.0487 16.6408 46.9968 16.6023 46.945C16.5381 46.8493 16.4611 46.7616 16.3713 46.6778C16.2174 46.5343 16.0292 46.4146 15.8196 46.3349C15.6186 46.2591 15.4005 46.2153 15.1738 46.2153C14.9472 46.2153 14.7291 46.2591 14.5238 46.3349C14.3228 46.4146 14.1389 46.5263 13.9849 46.6659L13.9721 46.6738C13.8181 46.8174 13.6898 46.9928 13.6043 47.1882C13.523 47.3757 13.476 47.579 13.476 47.7944C13.476 48.0097 13.523 48.2131 13.6043 48.4005C13.6898 48.5879 13.8096 48.7594 13.9635 48.9029L13.9721 48.9149C14.126 49.0584 14.3057 49.1741 14.5109 49.2538L14.5238 49.2578C14.7248 49.3336 14.9429 49.3774 15.1738 49.3774C15.4005 49.3774 15.6186 49.3336 15.8239 49.2578C16.0249 49.1781 16.2088 49.0664 16.3628 48.9268L16.3756 48.9149C16.4569 48.8391 16.5296 48.7554 16.598 48.6597C16.6322 48.6118 16.6621 48.564 16.6878 48.5121H19.6901C19.8996 48.5121 20.0878 48.4324 20.2247 48.3048C20.3615 48.1772 20.447 48.0017 20.447 47.8063Z" fill="black"/>
</g>
<path d="M70.3153 51H55.4844V12.4545H70.1648C74.1297 12.4545 77.5552 13.2262 80.4411 14.7695C83.3395 16.3003 85.5729 18.5086 87.1413 21.3945C88.7223 24.2679 89.5128 27.7121 89.5128 31.7273C89.5128 35.7424 88.7286 39.1929 87.1602 42.0788C85.5917 44.9522 83.3709 47.1605 80.4975 48.7038C77.6242 50.2346 74.2301 51 70.3153 51ZM65.9489 42.1165H69.9389C71.8461 42.1165 73.471 41.8091 74.8136 41.1942C76.1687 40.5794 77.1976 39.5192 77.9002 38.0135C78.6154 36.5078 78.973 34.4124 78.973 31.7273C78.973 29.0421 78.6091 26.9467 77.8814 25.441C77.1662 23.9354 76.1122 22.8751 74.7195 22.2603C73.3393 21.6455 71.6454 21.3381 69.6378 21.3381H65.9489V42.1165ZM104.819 12.4545V51H94.3545V12.4545H104.819Z" fill="black"/>
<defs>
<clipPath id="clip0_7_12">
<rect width="51" height="49" fill="white" transform="translate(0 6)"/>
</clipPath>
</defs>
</svg>
